<?xml version="1.0" encoding="utf-8"?>
<!-- Generator: Adobe Illustrator 25.1.0, SVG Export Plug-In . SVG Version: 6.00 Build 0)  -->
<svg version="1.1" id="Append-Icon" xmlns="http://www.w3.org/2000/svg" xmlns:xlink="http://www.w3.org/1999/xlink" x="0px"
	 y="0px" viewBox="0 0 200 200" style="enable-background:new 0 0 200 200;" xml:space="preserve">
<style type="text/css">
	.st0{fill:none;}
</style>
<g>
	<path d="M62.4,62.5l-55-18.4L44.1,7.4L62.4,62.5z"/>
	<circle class="st0" cx="106.6" cy="106" r="72.5"/>
	<path d="M100,55c-24.9,0-45,20.1-45,45s20.1,45,45,45s45-20.1,45-45C145,75.1,124.8,55,100,55z M130,105l-25,0l0,25H95l0-25l-25,0
		V95l25,0l0-25h10l0,25l25,0L130,105z"/>
	<path d="M14.5,0.4l18.2,18.2L18.7,32.8L0.4,14.6L14.5,0.4z"/>
	<path d="M200,100c0-55.1-44.9-99.9-100-99.9c-10.5,0-20.6,1.7-30.1,4.6l15,15.1c4.9-0.9,10-1.4,15.1-1.4
		c45.1,0,81.8,36.6,81.8,81.7c0,45.1-36.7,81.7-81.8,81.7c-45.1,0-81.8-36.6-81.8-81.7c0-4.5,0.4-9,1.1-13.3L4.2,71.5
		C1.5,80.6,0,90.2,0,100c0,55.2,44.9,99.9,100,99.9C155.1,199.9,200,155.2,200,100z"/>
</g>
</svg>
