<?xml version="1.0" encoding="utf-8"?>
<!-- Generator: Adobe Illustrator 25.1.0, SVG Export Plug-In . SVG Version: 6.00 Build 0)  -->
<svg version="1.1" id="Backlinks-Icon" xmlns="http://www.w3.org/2000/svg" xmlns:xlink="http://www.w3.org/1999/xlink" x="0px"
	 y="0px" viewBox="0 0 200 200" style="enable-background:new 0 0 200 200;" xml:space="preserve">
<g>
	<path d="M96.7,100.7c-4.4,5.7-13-1-8.6-6.7l3.3-4.3c7.1-9.1,17-9.9,24.8-6.1c2.9,1.3,5.7,3.5,7.7,6c5.6,6.6,7.2,16.5,0.1,25.6
		l-20.9,26.9c-4.8,6.2-11,8.4-17,7.9c-7.6,0-15.5-5.5-18.3-12.6c-3.9-8.1-1.7-16.1,5.2-23.9c2.1,2.9,5.3,5.3,8.6,6.7
		c-1.5,2-4.1,4.8-4.4,7.4C75.7,134,82,140.3,88.5,139c2.1-0.3,4.3-1.4,6-3.6c4.9-6.3,20.9-26.9,20.9-26.9c1.3-1.6,1.9-3.3,2-4.9
		c1.1-9.8-11.4-14.8-17.4-7.1L96.7,100.7L96.7,100.7z"/>
	<path d="M111.8,105.8c4.4-5.7-4.1-12.5-8.6-6.7l-3.3,4.3c-6,7.7-18.5,2.7-17.4-7.1c0.1-1.6,0.7-3.3,2-4.9c0,0,16-20.6,20.9-26.9
		c1.7-2.2,3.9-3.3,6-3.6c6.5-1.4,12.8,5,11.3,11.5c-0.3,2.6-2.9,5.4-4.4,7.4c3.3,1.3,6.5,3.8,8.6,6.7c6.9-7.8,9.2-15.8,5.2-23.9
		c-2.8-7.2-10.7-12.6-18.3-12.6c-6-0.5-12.2,1.7-17,7.9L75.9,84.8c-7.1,9.1-5.4,18.9,0.1,25.6c2,2.5,4.8,4.7,7.7,6
		c7.8,3.7,17.7,3,24.8-6.1L111.8,105.8z"/>
</g>
<path d="M200.4,102.6c0-53.4-44.9-96.9-100-96.9c-10.5,0-20.6,1.6-30.1,4.5L59.1-0.5L39.7,56L98,37.2L85.3,24.8
	c4.9-0.9,10-1.4,15.1-1.4c45.1,0,81.8,35.5,81.8,79.2s-36.7,79.2-81.8,79.2s-81.8-35.5-81.8-79.2c0-4.4,0.4-8.7,1.1-12.9L4.6,75
	c-2.7,8.8-4.2,18.1-4.2,27.6c0,53.5,44.9,96.9,100,96.9S200.4,156.1,200.4,102.6z"/>
</svg>
