<?xml version="1.0" encoding="utf-8"?>
<!-- Generator: Adobe Illustrator 25.1.0, SVG Export Plug-In . SVG Version: 6.00 Build 0)  -->
<svg version="1.1" id="Discuss-Icon" xmlns="http://www.w3.org/2000/svg" xmlns:xlink="http://www.w3.org/1999/xlink" x="0px"
	 y="0px" viewBox="0 0 200 200" style="enable-background:new 0 0 200 200;" xml:space="preserve">
<path d="M85.4,107l-5.4,8h60v10H73.4l-10,15H140v10H20v-10h36.6l-10-15H20v-10h20l-10-15H20V90h10V70H0v100h120l20,30l20-30v-63
	H85.4z"/>
<path d="M40,0v97l20,30l20-30h120V0H40z M190,87H74.6L60,109L50,94V10h140V87z"/>
<g>
	<circle cx="66.1" cy="48.5" r="10.6"/>
	<circle cx="93.1" cy="48.5" r="10.6"/>
	<circle cx="120" cy="48.5" r="10.6"/>
	<circle cx="146.9" cy="48.5" r="10.6"/>
	<circle cx="173.9" cy="48.5" r="10.6"/>
</g>
</svg>
