<?xml version="1.0" encoding="utf-8"?>
<!-- Generator: Adobe Illustrator 25.1.0, SVG Export Plug-In . SVG Version: 6.00 Build 0)  -->
<svg version="1.1" id="Edit-Icon" xmlns="http://www.w3.org/2000/svg" xmlns:xlink="http://www.w3.org/1999/xlink" x="0px" y="0px"
	 viewBox="0 0 200 200" style="enable-background:new 0 0 200 200;" xml:space="preserve">
<g>
	<path d="M171.7,63.6l-35.4-35.4L85.6,79l35.4,35.4L171.7,63.6z"/>
	<path d="M60.9,139.1l53-17.7L78.6,86.1L60.9,139.1z"/>
	<path d="M200,35.4L164.6,0l-21.2,21.2l35.4,35.4L200,35.4z"/>
</g>
<path d="M0,100C0,44.9,44.9,0,100,0c10.5,0,20.6,1.6,30.1,4.6l-15,15.1c-4.9-0.9-10-1.4-15.1-1.4c-45.1,0-81.8,36.6-81.8,81.7
	c0,45.1,36.7,81.7,81.8,81.7c45.1,0,81.8-36.6,81.8-81.7c0-4.5-0.4-9-1.1-13.3l15.1-15.2c2.7,9.1,4.2,18.7,4.2,28.5
	c0,55.2-44.9,100-100,100S0,155.2,0,100z"/>
</svg>
