<?xml version="1.0" encoding="utf-8"?>
<!-- Generator: Adobe Illustrator 25.1.0, SVG Export Plug-In . SVG Version: 6.00 Build 0)  -->
<svg version="1.1" id="Files-Icon" xmlns="http://www.w3.org/2000/svg" xmlns:xlink="http://www.w3.org/1999/xlink" x="0px" y="0px"
	 viewBox="0 0 200 200" style="enable-background:new 0 0 200 200;" xml:space="preserve">
<style type="text/css">
	.st0{fill:none;}
</style>
<path d="M18.4,43.5L0.3,48.3l34.5,102.6L18.4,43.5z"/>
<path class="st0" d="M60,20v180h140V75l-55-55H60z"/>
<polygon points="130,122.7 120,122.7 120,10 90,10 90,94.3 100,94.3 100,40 110,40 110,104.3 80,104.3 80,0 130,0 "/>
<path class="st0" d="M200,200H60V20h85l55,55V200z"/>
<path d="M27,30l23,170V28L27,30z"/>
<path d="M145,20H60v180h90.9H200v-10V75L145,20z M150,39.1L180.9,70H150V39.1z M70,190V30h70v50h50v110H70z"/>
<g>
	<polygon points="157.3,141.1 153.1,93.6 175.7,93.6 171.5,141.1 	"/>
	<circle cx="164.4" cy="162.4" r="11.3"/>
</g>
<rect x="70.6" y="126.2" width="70.9" height="5"/>
<rect x="70.6" y="118.4" width="42.5" height="4.3"/>
<rect x="70.6" y="109.2" width="42.5" height="5"/>
<rect x="70.6" y="134.7" width="70.9" height="5"/>
<rect x="70.6" y="143.2" width="70.9" height="5"/>
<rect x="70.6" y="151.7" width="70.9" height="5"/>
<rect x="70.6" y="160.2" width="70.9" height="5"/>
<rect x="70.6" y="168.7" width="70.9" height="5"/>
<rect x="70.6" y="177.3" width="113.4" height="5"/>
</svg>
