<?xml version="1.0" encoding="utf-8"?>
<!-- Generator: Adobe Illustrator 25.1.0, SVG Export Plug-In . SVG Version: 6.00 Build 0)  -->
<svg version="1.1" id="History-Icon" xmlns="http://www.w3.org/2000/svg" xmlns:xlink="http://www.w3.org/1999/xlink" x="0px"
	 y="0px" viewBox="0 0 200 200" style="enable-background:new 0 0 200 200;" xml:space="preserve">
<g>
	<path d="M200,103.1c0-53.4-44.9-96.9-100-96.9c-10.5,0-20.6,1.6-30.1,4.5L58.7,0L39.3,56.5l58.3-18.8L84.9,25.3
		c4.9-0.9,10-1.4,15.1-1.4c45.1,0,81.8,35.5,81.8,79.2s-36.7,79.2-81.8,79.2c-45.1,0-81.8-35.5-81.8-79.2c0-4.4,0.4-8.7,1.1-12.9
		L4.2,75.5C1.5,84.3,0,93.6,0,103.1C0,156.6,44.9,200,100,200S200,156.6,200,103.1z"/>
	<polygon points="97.1,60.8 112.8,64.9 98.1,118 121.7,124.1 117.5,139.2 78.3,129 	"/>
</g>
</svg>
