<?xml version="1.0" encoding="utf-8"?>
<!-- Generator: Adobe Illustrator 25.1.0, SVG Export Plug-In . SVG Version: 6.00 Build 0)  -->
<svg version="1.1" id="search_icon" xmlns="http://www.w3.org/2000/svg" xmlns:xlink="http://www.w3.org/1999/xlink" x="0px"
	 y="0px" viewBox="0 0 200 200" style="enable-background:new 0 0 200 200;" xml:space="preserve">
<path d="M130.8,22.3c-29.9-29.9-78.5-29.9-108.4,0c-29.9,29.9-29.9,78.5,0,108.4c22.4,22.4,55.2,28,82.9,16.9l12.9,6.5l6.3-6.3
	l52.3,52.3h8l15-15v-8l-52.2-52.2l6.5-6.5l-6.5-12.9C158.9,77.8,153.3,44.8,130.8,22.3z M109.9,109.8c-18.4,18.4-48.2,18.4-66.6,0
	s-18.4-48.2,0-66.6c18.4-18.4,48.2-18.4,66.6,0S128.3,91.4,109.9,109.8z"/>
</svg>
