<?xml version="1.0" encoding="utf-8"?>
<!-- Generator: Adobe Illustrator 25.1.0, SVG Export Plug-In . SVG Version: 6.00 Build 0)  -->
<svg version="1.1" id="Site-Tools-Icon" xmlns="http://www.w3.org/2000/svg" xmlns:xlink="http://www.w3.org/1999/xlink" x="0px"
	 y="0px" viewBox="0 0 200 200" style="enable-background:new 0 0 200 200;" xml:space="preserve">
<g>
	<path d="M123.4,81.2c2.2,1.1,4.1,2.3,5.9,3.7l11-4.4c3.9,4.1,6.9,8.9,8.9,14.2l-8.8,8c0.5,2.2,0.8,4.6,0.7,6.9l10.3,5.8
		c-0.3,2.7-1,5.5-2,8.2c-1,2.6-2.1,5.3-3.6,7.6l-11.7-1.9c-1.5,1.8-3.1,3.5-5,4.9l1.9,11.7c-4.8,2.9-10.2,4.7-15.8,5.5l-5.7-10.4
		c-2.3,0-4.7-0.3-6.9-0.8l-8,8.8c-5.4-2.1-10.2-5.1-14.1-8.9l4.5-11c-1.4-1.8-2.7-3.8-3.7-5.9l-11.9-0.8c-1.7-5.3-2.3-10.9-1.9-16.6
		l11.4-3.3c0.2-1.1,0.6-2.3,1-3.3c0.4-1.1,0.8-2.2,1.4-3.2l-6.8-9.8c3.2-4.8,7.2-8.7,11.9-11.8l9.7,6.8c2-1,4.3-1.8,6.6-2.3
		l3.3-11.4c5.5-0.5,11.1,0.1,16.7,1.9L123.4,81.2L123.4,81.2z M95.8,104.5c-2.8,8,1.4,16.8,9.4,19.6c8,2.8,16.7-1.4,19.6-9.4
		c2.8-8-1.4-16.8-9.4-19.6S98.6,96.6,95.8,104.5z"/>
	<polygon points="53,71.6 72.3,52.4 79.1,56.1 95.9,39.3 56.6,0 0,56.6 39.3,95.9 56.7,78.5 	"/>
	<path d="M110.6,28.4c-45.4,0-82.2,36.8-82.2,82.2c0,45.4,36.8,82.2,82.2,82.2c12.7,0,24.8-2.9,35.6-8.1l-17.4-17.4
		c-5.7,1.8-11.8,2.8-18.2,2.8c-32.9,0-59.5-26.7-59.5-59.5c0-10.4,2.7-20.2,7.4-28.7L53,71.6l19.4-19.1L82.5,58c8.3-4.5,17.9-7,28-7
		c32.9,0,59.5,26.7,59.5,59.5c0,6.7-1.1,13.2-3.2,19.3l17.3,17.3c5.5-11,8.6-23.4,8.6-36.6C192.8,65.2,156,28.4,110.6,28.4z"/>
</g>
</svg>
