<?xml version="1.0" encoding="utf-8"?>
<!-- Generator: Adobe Illustrator 25.1.0, SVG Export Plug-In . SVG Version: 6.00 Build 0)  -->
<svg version="1.1" id="Watchers-Icon" xmlns="http://www.w3.org/2000/svg" xmlns:xlink="http://www.w3.org/1999/xlink" x="0px"
	 y="0px" viewBox="0 0 200 200" style="enable-background:new 0 0 200 200;" xml:space="preserve">
<path d="M76.9,124.8c-5.8-10.1-5.7-22.7,0.1-32.9l8.7,5c-4.1,7.1-4.1,15.9-0.1,23L76.9,124.8z M9.6,125.3l-9.2-4
	C27.5,56.5,98.3,18,158.8,25.8l-1,10C101.3,28.4,34.8,64.6,9.6,125.3z"/>
<path d="M111.8,51.2C47.9,63.9,10.6,136.8,8.2,167.1C89.8,198.2,188.3,131.5,200,54.6C185.7,49.7,152,40.4,111.8,51.2z M141,132.1
	c-3.6,3.2-7.5,6.1-11.5,8.8l-8.5,5.2c-25.9,14.8-57.2,19.6-86.4,13.3l2.1-9.8c12.7,3.1,38.2,4.3,59.4-3.3
	C62.9,139.6,55.9,90.7,86,74.5c28-17.7,65,10.5,57,41.9c8.6-9.2,15.8-19.9,21-31.5l9.1,4.1C165.7,105.5,154.6,120.4,141,132.1z"/>
<path d="M114.9,101c-7.4-2.8-11.3-12.5-8-19.7c-17.2,7.7-20.6,38.2-4.8,46.1c4.3,2.6,9.8,2.8,14.4,0.2c5.6-3.2,8.1-9.7,6.7-15.6
	C122.4,107.3,119.5,103,114.9,101z"/>
</svg>
